<?xml version="1.0" encoding="utf-8"?>
<!-- Generator: Adobe Illustrator 19.0.0, SVG Export Plug-In . SVG Version: 6.00 Build 0)  -->
<svg version="1.1" id="Capa_1" xmlns="http://www.w3.org/2000/svg" xmlns:xlink="http://www.w3.org/1999/xlink" x="0px" y="0px"
	 viewBox="-452 244.6 53.8 72.4" style="enable-background:new -452 244.6 53.8 72.4;" xml:space="preserve">
<style type="text/css">
	.st0{fill:#FFFFFF;stroke:#333333;stroke-width:3;stroke-miterlimit:10;}
	.st1{fill:#FFFFFF;stroke:#333333;stroke-width:2;stroke-linecap:round;stroke-linejoin:round;stroke-miterlimit:10;}
	.st2{fill:#FFFFFF;stroke:#333333;stroke-width:2;stroke-linecap:round;stroke-miterlimit:10;}
</style>
<g id="XMLID_316_">
	<g id="XMLID_338_">
		<path id="XMLID_340_" class="st0" d="M-415.2,257.2h8.5c1.8,0,3.2,1.4,3.2,3.2v50.3c0,1.8-1.4,3.2-3.2,3.2h-38
			c-1.8,0-3.2-1.4-3.2-3.2v-50.3c0-1.8,1.4-3.2,3.2-3.2h8.4"/>
		<path id="XMLID_339_" class="st0" d="M-418.5,253.9c-0.8,0-1.5-0.7-1.5-1.5l0,0c0-2.6-2.6-4.7-5.6-4.7s-5.6,2.1-5.6,4.7l0,0
			c0,0.8-0.7,1.5-1.5,1.5h-1.6c-0.8,0-1.5,0.7-1.5,1.5v3.5c0,0.8,0.7,1.5,1.5,1.5h17.6c0.8,0,1.5-0.7,1.5-1.5v-3.5
			c0-0.8-0.7-1.5-1.5-1.5H-418.5z"/>
	</g>
	<g id="XMLID_326_">
		<polyline id="XMLID_337_" class="st1" points="-439.4,271.9 -437.4,274.2 -432.6,268.3 		"/>
		<line id="XMLID_336_" class="st2" x1="-430" y1="273" x2="-412" y2="273"/>
	</g>
	<g id="XMLID_323_">
		<polyline id="XMLID_325_" class="st1" points="-439.4,281.3 -437.4,283.6 -432.6,277.7 		"/>
		<line id="XMLID_324_" class="st2" x1="-430" y1="283" x2="-412" y2="283"/>
	</g>
	<g id="XMLID_320_">
		<polyline id="XMLID_322_" class="st1" points="-439.4,290.7 -437.4,292.9 -432.6,287.1 		"/>
		<line id="XMLID_321_" class="st2" x1="-430" y1="292" x2="-412" y2="292"/>
	</g>
	<g id="XMLID_317_">
		<polyline id="XMLID_319_" class="st1" points="-439.4,300.1 -437.4,302.3 -432.6,296.4 		"/>
		<line id="XMLID_318_" class="st2" x1="-430" y1="301" x2="-412" y2="301"/>
	</g>
</g>
</svg>
