<?xml version="1.0" encoding="utf-8"?>
<!-- Generator: Adobe Illustrator 19.0.0, SVG Export Plug-In . SVG Version: 6.00 Build 0)  -->
<svg version="1.1" id="Capa_1" xmlns="http://www.w3.org/2000/svg" xmlns:xlink="http://www.w3.org/1999/xlink" x="0px" y="0px"
	 viewBox="0 0 53.8 72.4" style="enable-background:new 0 0 53.8 72.4;" xml:space="preserve">
<style type="text/css">
	.st0{fill:#CCCCCC;stroke:#333333;stroke-width:3;stroke-miterlimit:10;}
	.st1{fill:#CCCCCC;stroke:#333333;stroke-width:2;stroke-linecap:round;stroke-linejoin:round;stroke-miterlimit:10;}
	.st2{fill:#CCCCCC;stroke:#333333;stroke-width:2;stroke-linecap:round;stroke-miterlimit:10;}
</style>
<g id="XMLID_83_">
	<g id="XMLID_96_">
		<path id="XMLID_98_" class="st0" d="M36.7,12.6h8.5c1.8,0,3.2,1.4,3.2,3.2v50.3c0,1.8-1.4,3.2-3.2,3.2h-38c-1.8,0-3.2-1.4-3.2-3.2
			V15.9c0-1.8,1.4-3.2,3.2-3.2h8.4"/>
		<path id="XMLID_97_" class="st0" d="M33.3,9.3c-0.8,0-1.5-0.7-1.5-1.5v0c0-2.6-2.6-4.7-5.6-4.7s-5.6,2.1-5.6,4.7v0
			c0,0.8-0.7,1.5-1.5,1.5h-1.6c-0.8,0-1.5,0.7-1.5,1.5v3.5c0,0.8,0.7,1.5,1.5,1.5H35c0.8,0,1.5-0.7,1.5-1.5v-3.5
			c0-0.8-0.7-1.5-1.5-1.5H33.3z"/>
	</g>
	<g id="XMLID_93_">
		<polyline id="XMLID_95_" class="st1" points="12.5,27.4 14.5,29.6 19.3,23.7 		"/>
		<line id="XMLID_94_" class="st2" x1="21.9" y1="28.2" x2="39.9" y2="28.2"/>
	</g>
	<g id="XMLID_90_">
		<polyline id="XMLID_92_" class="st1" points="12.5,36.8 14.5,39 19.3,33.1 		"/>
		<line id="XMLID_91_" class="st2" x1="21.9" y1="38.2" x2="39.9" y2="38.2"/>
	</g>
	<g id="XMLID_87_">
		<polyline id="XMLID_89_" class="st1" points="12.5,46.1 14.5,48.4 19.3,42.5 		"/>
		<line id="XMLID_88_" class="st2" x1="21.9" y1="47.2" x2="39.9" y2="47.2"/>
	</g>
	<g id="XMLID_84_">
		<polyline id="XMLID_86_" class="st1" points="12.5,55.5 14.5,57.8 19.3,51.9 		"/>
		<line id="XMLID_85_" class="st2" x1="21.9" y1="56.2" x2="39.9" y2="56.2"/>
	</g>
</g>
</svg>
