<?xml version="1.0" encoding="utf-8"?>
<!-- Generator: Adobe Illustrator 19.0.0, SVG Export Plug-In . SVG Version: 6.00 Build 0)  -->
<svg version="1.1" id="Capa_1" xmlns="http://www.w3.org/2000/svg" xmlns:xlink="http://www.w3.org/1999/xlink" x="0px" y="0px"
	 viewBox="0 0 459.3 250.1" style="enable-background:new 0 0 459.3 250.1;" xml:space="preserve">
<style type="text/css">
	.st0{opacity:0.2;}
	.st1{fill:#F7931E;}
	.st2{fill:#333333;}
</style>
<g id="Logo_HORIZONTAL_2_" class="st0">
	<g id="XMLID_399_">
		<path id="XMLID_402_" class="st1" d="M426.8,103.2c-0.4-2.8-2.9-3.9-2.9-3.9l-11.2-0.1c-11-0.2-7.8,0.2-19.1,6.2
			c-11.4,6-18.4-0.7-21.7-3.5c-3.4-2.8-7.1-2.6-7.1-2.6c-13.8-1.2-15.6,16.6-15.6,16.6c2,0.2,1.7,5.3,1.7,5.3
			c0.2,1.7-0.9,1.7-0.9,1.7s-14.5,0.2-17,0c-2.5-0.3-2.2-1.1-2.5-1.5c-0.4-0.4,0-3.4,0.3-4.4c0.3-1,1.2-1.3,1.2-1.3
			c0.9-10.7,7.5-24.5,15.3-29.9c7.8-5.4,12.3-5.4,17.8-6.4c5.5-1,6.3-6.1,6.3-6.1l0.1-8.8c-1.8-0.1-1.4-2.8-1.4-2.8
			c-0.3-3.6,1.6-3.5,1.6-3.5h3.1c-1.2-1.8,0.9-2.6,0.9-2.6h3.1v-9.3c-1.4-0.8-2.5-1.9-2.5-1.9l-10.3,2.4c-9.8,2.5-10.4-7.3-10.4-7.3
			c0.5-8.6,8.8-8.4,8.8-8.4l11.9,2.9c0,0,1.5-2.5,7.5-2.9c6-0.4,9.2,2.8,9.2,2.8l11.6-2.8c7.9-0.2,8.9,7.8,8.9,7.8
			c-0.2,9.8-10.1,8.3-10.1,8.3l-10.9-2.4c-0.6,0.8-2.5,1.6-2.5,1.6v9.1l3.6,0.1c2.1,1.2,0.7,2.5,0.7,2.5s1.8,0.1,3.5,0.1
			s1.2,4.7,1.2,4.7c-0.1,1.3-1.1,1.5-1.1,1.5l0.3,8.4c1.1,6.9,6.8,7.3,6.8,7.3l18.8,0.1c3.2-1.8,2.8-3.9,2.8-3.9l10.5,0.1V43.5
			L372.1,6.2L307,43.5l0,74.8l65.1,37.4l65.1-37.4v-15L426.8,103.2z"/>
		<path id="XMLID_401_" class="st1" d="M86.2,6.2L21.2,43.5v74.8l19.9,11.4l14.4-27c1.7-3.1,5-4.7,8.3-4.4c5.2-8.4,9-6.7,9-6.7
			s36.1,11.9,42.9,13.6c6.8,1.6,10-9.1,14.6-17.8c2.1-4-1-7.7-5-10.6l-2.6,4.9c-2.2,4.1-7.2,5.6-11.3,3.5L60.2,58.2
			c-4.1-2.2-5.6-7.2-3.5-11.3l5.2-9.8c2.2-4.1,7.2-5.6,11.3-3.5l51.1,26.9c4.1,2.2,5.6,7.2,3.5,11.3l-1.5,2.7
			c4.7,3.5,9.1,8.1,6.7,12.7c-4.6,8.7-9.3,22.7-16.1,21c-6.8-1.6-44.2-13.7-44.2-13.7s-2.1-1.2-6.1,4.6c0,0,0.1,0,0.1,0.1l0.9,0.5
			c4.1,2.2,5.6,7.2,3.5,11.3l-14.7,27.6l29.7,17.1l65.1-37.4l0-74.8L86.2,6.2z"/>
		<path id="XMLID_400_" class="st1" d="M242.2,119.7c-0.4-0.8,0.8-1.4,0.8-1.4s-15.6-24.7-16-25.4c-0.3-0.7-1.2,0.1-1.6,0.2
			c-0.5,0.2-1.8,0-2.2-0.4c-0.4-0.5-0.6-1-4.5-7.3c-3.9-6.3-10.8-3.5-15.1-1.4c-4.4,2.1-3.7,5-3,6.5c0.7,1.5-0.3,2.7-0.3,2.7
			s-7.8,4.9-8.5,5.1c-0.7,0.2-2.3-0.6-2.3-0.6s-9-14.9-9.9-16.4c-0.9-1.5,0.2-2.4,0.2-2.4l8-5.2c0.6-0.4,1.3-0.3,1.3-0.3
			c1.8,1.4,6.9,1.9,8.5,1.5c1.7-0.4,2.4-5.9,2.4-5.9c-1.3-4.3,11.2-11.2,25.1-17.4c14-6.1,30.1-6.6,34.1-4.3c4,2.2-1.9,2.6-1.9,2.6
			c-6.7,0.4-10.1,2.4-16.2,6.5c-6,4.1-7.6,11.5-7.9,13.9c-0.4,2.4,4.3,10.2,5.5,11.6c1.1,1.4,1,3,0,3.2c-1,0.2-0.6,1.6-0.6,1.6
			l15.1,25.5c1-0.7,1.7,0.2,1.7,0.2s6,9.1,13.8,20.8l25.7-14.8V43.5L229.4,6.2l-65.1,37.4v74.8l65.1,37.4l24.8-14.2
			C247.5,129.3,242.3,119.9,242.2,119.7z"/>
	</g>
	<g id="XMLID_344_">
		<g id="XMLID_365_">
			<path id="XMLID_397_" class="st2" d="M45.1,181.2c0,0.1,0,0.1,0,0.2v14.9c0,1.8-1.5,3.3-3.3,3.3c-1.8,0-3.4-1.5-3.4-3.3v-14.9
				c0-0.1,0-0.1,0-0.2c-0.1-3.5-3-6.3-6.5-6.3c-3.5,0-6.4,2.9-6.4,6.5v14.9c0,0.1-0.1,0.3-0.1,0.4c0,0.1,0,0.2,0,0.2
				c-0.1,0.1-0.1,0.3-0.2,0.4c0,0.1,0,0.2,0,0.3c-0.6,1.1-1.8,2-3.2,2c-0.3,0-0.4-0.1-0.6-0.1c-1.5-0.4-2.7-1.6-2.7-3.3v-14.9
				c0-0.1,0-0.1,0-0.1v-9.8c0-2,1.5-3.4,3.3-3.4c1.3,0,2.5,0.7,3,1.9c2-1.2,4.3-1.9,6.7-1.9c4,0,7.5,1.6,9.9,4.3
				c2.3-2.7,5.9-4.3,9.9-4.3c7.2,0,13.1,5.9,13.1,13.2v14.9c0,1.8-1.5,3.3-3.3,3.3c-1.8,0-3.4-1.5-3.4-3.3v-14.9
				c0-3.6-2.9-6.5-6.4-6.5C48,174.9,45.2,177.7,45.1,181.2z"/>
			<path id="XMLID_395_" class="st2" d="M91.2,199.6c-7.2,0-13.1-5.9-13.1-13.1v-15.1c0-1.8,1.5-3.3,3.3-3.3c1.9,0,3.3,1.6,3.3,3.3
				v15.1c0,3.6,2.8,6.4,6.4,6.4c3.7,0,6.6-2.8,6.6-6.4v-15.1c0-1.8,1.4-3.3,3.3-3.3c1.8,0,3.4,1.6,3.4,3.3v15.1
				C104.5,193.7,98.4,199.6,91.2,199.6z"/>
			<path id="XMLID_393_" class="st2" d="M119.3,155.5c2,0,3.5,1.6,3.5,3.5v37.2c0,1.9-1.6,3.5-3.5,3.5c-1.9,0-3.5-1.6-3.5-3.5V159
				C115.8,157.1,117.4,155.5,119.3,155.5z"/>
			<path id="XMLID_391_" class="st2" d="M145.2,171.6c0,1.9-1.6,3.5-3.5,3.5h-1.6v17.6c2,0,3.5,1.6,3.5,3.5c0,2-1.5,3.5-3.5,3.5
				c-3.8,0-7-3.2-7-7V175h-1.8c-2,0-3.5-1.6-3.5-3.5c0-2,1.5-3.5,3.5-3.5h1.8V159c0-2,1.6-3.5,3.5-3.5c2,0,3.5,1.5,3.5,3.5v9.1h1.6
				C143.6,168.1,145.2,169.6,145.2,171.6z"/>
			<path id="XMLID_388_" class="st2" d="M163.1,160.2c0,1.9-1.5,3.5-3.4,3.5c-1.9,0-3.4-1.6-3.4-3.5v-1.3c0-1.9,1.5-3.4,3.4-3.4
				c2,0,3.4,1.5,3.4,3.4V160.2z M163.1,171.6v24.6c0,1.9-1.5,3.4-3.4,3.4c-1.9,0-3.4-1.5-3.4-3.4v-24.6c0-2,1.5-3.5,3.4-3.5
				C161.7,168.2,163.1,169.6,163.1,171.6z"/>
			<path id="XMLID_386_" class="st2" d="M172.5,190.6c1.1-1.5,3.3-1.7,4.7-0.5c1.6,1.4,4.5,2.8,6.9,2.8c1.7,0,3.3-0.6,4.3-1.2
				c0.9-0.8,1.1-1.4,1.1-1.9c0-0.3-0.1-0.4-0.2-0.6c-0.1-0.2-0.3-0.4-0.8-0.8c-0.9-0.6-2.8-1.3-5-1.8h-0.1c-2-0.4-3.8-0.9-5.5-1.6
				c-1.7-0.8-3.2-2-4.3-3.7c-0.7-1.1-1.1-2.5-1.1-4c0-2.9,1.6-5.4,3.7-6.9c2.2-1.5,4.9-2.3,7.8-2.3c4.3,0,7.4,2.1,9.5,3.5
				c1.5,1,2,3.1,1,4.7c-1,1.5-3.1,2-4.7,0.9c-2-1.3-3.8-2.3-5.8-2.3c-1.6,0-3,0.5-3.8,1.1c-0.8,0.6-1,1.1-1,1.4c0,0.3,0,0.3,0.1,0.5
				c0.1,0.1,0.3,0.4,0.7,0.6c0.8,0.6,2.5,1.1,4.6,1.5l0.1,0.1h0.1c2.1,0.4,4,0.9,5.9,1.8c1.7,0.8,3.4,2,4.5,3.7
				c0.8,1.3,1.2,2.7,1.2,4.2c0,3.1-1.7,5.7-4,7.3c-2.3,1.6-5.1,2.5-8.2,2.5c-4.9-0.1-8.7-2.3-11.2-4.3
				C171.5,194.1,171.3,192,172.5,190.6z"/>
			<path id="XMLID_383_" class="st2" d="M202.8,183.9c0.1-8.6,6.7-15.8,15.4-15.8c8.2,0,14.7,6.1,15.2,14.6c0,0.1,0,0.2,0,0.3
				c0,0.1,0,0.4-0.1,0.6c-0.2,1.5-1.5,2.5-3.3,2.5h-20c0.3,1.5,1,3.1,2.1,4.2c1.3,1.5,3.8,2.6,6.1,2.8c2.3,0.2,5-0.4,6.6-1.6
				c1.3-1.4,3.9-1.2,4.7-0.2c0.8,0.9,1.4,2.8,0,4.1c-3.1,2.8-6.8,4.2-11.3,4.2C209.5,199.6,202.8,192.4,202.8,183.9z M209.6,180.8
				h17.8c-0.6-2.5-3.8-6.2-9.3-6.7C212.8,174.3,210.1,178.2,209.6,180.8z"/>
			<path id="XMLID_381_" class="st2" d="M261.4,171.4c0,1.8-1.5,3.3-3.3,3.3c-1.4,0-2.7,0.4-3.8,1.2c-1.2,0.8-2.1,1.8-2.9,3
				c-1.5,2-2.3,4.4-2.6,5.3v12c0,1.8-1.6,3.3-3.5,3.3c-1.8,0-3.3-1.5-3.3-3.3v-24.8c0-1.8,1.5-3.3,3.3-3.3c1.9,0,3.5,1.4,3.5,3.3
				v0.4c0.4-0.4,0.9-0.9,1.3-1.3c2.1-1.4,4.8-2.5,7.9-2.5C260,168.2,261.4,169.6,261.4,171.4z"/>
			<path id="XMLID_379_" class="st2" d="M294.6,173.2l-10.3,24.5c-0.1,0.2-0.2,0.4-0.3,0.4c0,0.1-0.1,0.1-0.1,0.1
				c-0.1,0.1-0.3,0.3-0.4,0.4c0,0.1-0.1,0.1-0.1,0.1c-0.1,0.2-0.3,0.3-0.4,0.4c0,0-0.1,0-0.1,0.1c-0.1,0.1-0.3,0.3-0.4,0.3
				c0,0,0,0-0.1,0c0,0,0,0,0,0.1c-0.2,0-0.4,0.1-0.5,0.1c-0.1,0-0.1,0-0.1,0c-0.3,0.1-0.4,0.1-0.6,0.1c-0.1,0-0.3,0-0.6-0.1
				c-0.1,0-0.1,0-0.1,0c-0.2-0.1-0.3-0.1-0.5-0.1c0-0.1,0-0.1,0-0.1c-0.1,0-0.1,0-0.1,0c-0.2-0.1-0.3-0.2-0.6-0.3
				c0-0.1-0.1-0.1-0.1-0.1c-0.1-0.1-0.3-0.2-0.4-0.4c-0.1,0-0.1,0-0.1-0.1c-0.1-0.1-0.2-0.3-0.3-0.4c-0.1,0-0.1,0-0.1-0.1
				c-0.1-0.1-0.2-0.3-0.3-0.4l-10.2-24.5c-0.8-1.7,0.1-3.5,1.8-4.3c1.5-0.8,3.5,0.1,4.2,1.8l7.2,17.1l7.3-17.1
				c0.7-1.7,2.6-2.6,4.2-1.8C294.5,169.6,295.4,171.4,294.6,173.2z"/>
			<path id="XMLID_376_" class="st2" d="M313.3,160.2c0,1.9-1.5,3.5-3.4,3.5c-1.9,0-3.4-1.6-3.4-3.5v-1.3c0-1.9,1.5-3.4,3.4-3.4
				c2,0,3.4,1.5,3.4,3.4V160.2z M313.3,171.6v24.6c0,1.9-1.5,3.4-3.4,3.4c-1.9,0-3.4-1.5-3.4-3.4v-24.6c0-2,1.5-3.5,3.4-3.5
				C311.8,168.2,313.3,169.6,313.3,171.6z"/>
			<path id="XMLID_374_" class="st2" d="M321.9,183.9c0-8.8,7.3-15.8,16-15.8c3.8,0,7.3,1.4,10,3.5c1.4,1.1,1.7,3.3,0.7,4.7
				c-1.3,1.5-3.3,1.8-4.7,0.6c-1.6-1.2-3.7-2-6-2c-5.1,0-9.3,4.2-9.3,9.1c0,4.9,4.2,9,9.3,9c2.3,0,4.3-0.8,6-2
				c1.4-1.1,3.5-0.8,4.7,0.7c1,1.4,0.8,3.4-0.7,4.7c-2.7,2-6.2,3.3-10,3.3C329.2,199.6,321.9,192.6,321.9,183.9z"/>
			<path id="XMLID_371_" class="st2" d="M367,160.2c0,1.9-1.4,3.5-3.4,3.5c-1.9,0-3.4-1.6-3.4-3.5v-1.3c0-1.9,1.5-3.4,3.4-3.4
				c2,0,3.4,1.5,3.4,3.4V160.2z M367,171.6v24.6c0,1.9-1.4,3.4-3.4,3.4c-1.9,0-3.4-1.5-3.4-3.4v-24.6c0-2,1.5-3.5,3.4-3.5
				C365.5,168.2,367,169.6,367,171.6z"/>
			<path id="XMLID_368_" class="st2" d="M380.7,195c-2.7-2.8-4.3-6.7-4.3-11.1c0-4.3,1.6-8,4.3-11c2.8-3,6.5-4.8,10.8-4.8
				c4.2,0,7.9,1.8,10.5,4.8c2.8,3,4.4,6.7,4.4,11c0,4.4-1.6,8.3-4.4,11.1c-2.6,3-6.4,4.8-10.5,4.8C387.2,199.8,383.5,198,380.7,195z
				 M383.2,183.9c0,2.7,0.8,4.9,2.3,6.7c1.6,1.5,3.7,2.3,6.1,2.3c2.2,0,4.2-0.8,5.8-2.3c1.6-1.8,2.5-4,2.5-6.7
				c0-2.6-0.9-4.9-2.5-6.6c-1.6-1.4-3.6-2.4-5.8-2.4c-2.4,0-4.5,1-6.1,2.4C384,179.1,383.2,181.3,383.2,183.9z"/>
			<path id="XMLID_366_" class="st2" d="M415.7,190.6c1.1-1.5,3.3-1.7,4.7-0.5c1.6,1.4,4.5,2.8,6.9,2.8c1.7,0,3.3-0.6,4.3-1.2
				c0.9-0.8,1.1-1.4,1.1-1.9c0-0.3-0.1-0.4-0.2-0.6c-0.1-0.2-0.3-0.4-0.8-0.8c-0.9-0.6-2.8-1.3-5-1.8h-0.1c-2-0.4-3.8-0.9-5.5-1.6
				c-1.7-0.8-3.2-2-4.4-3.7c-0.7-1.1-1.1-2.5-1.1-4c0-2.9,1.6-5.4,3.7-6.9c2.2-1.5,4.9-2.3,7.8-2.3c4.3,0,7.4,2.1,9.5,3.5
				c1.5,1,2,3.1,1,4.7c-1,1.5-3.1,2-4.7,0.9c-2-1.3-3.8-2.3-5.8-2.3c-1.6,0-3,0.5-3.8,1.1c-0.8,0.6-1,1.1-1,1.4c0,0.3,0,0.3,0.1,0.5
				c0.1,0.1,0.3,0.4,0.7,0.6c0.8,0.6,2.5,1.1,4.6,1.5l0.1,0.1h0.1c2.1,0.4,4,0.9,5.9,1.8c1.7,0.8,3.4,2,4.5,3.7
				c0.8,1.3,1.2,2.7,1.2,4.2c0,3.1-1.7,5.7-4,7.3c-2.3,1.6-5.1,2.5-8.2,2.5c-4.9-0.1-8.7-2.3-11.2-4.3
				C414.7,194.1,414.5,192,415.7,190.6z"/>
		</g>
		<g id="XMLID_345_">
			<path id="XMLID_362_" class="st2" d="M78.3,228.6c0-8.6,6.7-15.5,15-15.5c7.9,0,14.2,6.3,14.9,14.4v0.1v0.2
				c0,0.8-0.7,1.4-1.5,1.4H81.3c0.3,6.7,5.6,11.9,12,11.9c4.1,0,7.9-2.1,10-5.6c0.4-0.8,1.4-0.9,2-0.5c0.7,0.5,0.9,1.4,0.5,2.1
				c-2.6,4.2-7.2,7-12.5,7C85,243.9,78.3,237,78.3,228.6z M81.5,226.1h23.4c-1-5.8-5.9-10-11.6-10C87.5,216.1,82.6,220.2,81.5,226.1
				z"/>
			<path id="XMLID_360_" class="st2" d="M119.3,201.3c0-0.8,0.7-1.5,1.5-1.5c0.9,0,1.6,0.7,1.6,1.5v41.1c0,0.8-0.7,1.5-1.6,1.5
				c-0.8,0-1.5-0.7-1.5-1.5V201.3z"/>
			<path id="XMLID_358_" class="st2" d="M197.7,225.7c-0.1-5.2-4.3-9.6-9.6-9.6c-5.2,0-9.5,4.3-9.5,9.6v16.8v0.2
				c0,0.1-0.1,0.1-0.1,0.1v0.1c-0.1,0.4-0.4,0.6-0.8,0.8c-0.3,0.1-0.5,0.2-0.8,0.2h-0.2h-0.1c-0.1,0-0.1-0.1-0.1-0.1
				c-0.1,0-0.3-0.1-0.4-0.2c-0.1,0-0.1-0.1-0.2-0.1l-0.2-0.2c-0.1-0.1-0.1-0.1-0.1-0.1c0-0.1,0-0.1-0.1-0.1c0,0,0-0.1-0.1-0.1
				c0-0.1,0-0.1-0.1-0.2v-0.2v-0.1v-16.8c0-5.2-4.2-9.6-9.5-9.6c-5.3,0-9.5,4.3-9.5,9.6v16.8c0,0.5-0.3,0.9-0.7,1.2
				c-0.1,0.1-0.3,0.2-0.4,0.2c-0.1,0.1-0.1,0.1-0.3,0.1h-0.2h-0.2c-0.6-0.1-1.1-0.6-1.3-1.1v-0.3v-16.8v-0.5v-10.6
				c0-0.8,0.7-1.5,1.5-1.5c0.9,0,1.5,0.6,1.5,1.5v3c2.3-2.7,5.7-4.4,9.5-4.4c4.8,0,8.9,2.6,11,6.6c2.2-3.9,6.4-6.6,11.1-6.6
				c6.9,0,12.5,5.6,12.5,12.5v16.8c0,0.8-0.6,1.4-1.5,1.4c-0.8,0-1.4-0.7-1.4-1.4V225.7z"/>
			<path id="XMLID_355_" class="st2" d="M226.6,213.1c8.1,0,14.6,7.1,14.6,15.4c0,8.4-6.5,15.4-14.6,15.4c-8.1,0-14.6-7.1-14.6-15.4
				C212,220.1,218.5,213.1,226.6,213.1z M226.6,240.9c6.3,0,11.6-5.5,11.6-12.4c0-6.9-5.3-12.5-11.6-12.5c-6.3,0-11.6,5.6-11.6,12.5
				C215,235.4,220.3,240.9,226.6,240.9z"/>
			<path id="XMLID_353_" class="st2" d="M251.6,214.6c0-0.9,0.7-1.5,1.6-1.5c0.8,0,1.4,0.6,1.4,1.5v6.8c0.1-0.3,0.3-0.5,0.4-0.8
				c2.3-3.7,6.4-7.6,12.4-7.6c0.8,0,1.5,0.6,1.5,1.5c0,0.8-0.7,1.5-1.5,1.5c-4,0-6.8,2.3-9,5c-2.1,2.8-3.3,5.9-3.7,7.2
				c-0.1,0.3-0.1,0.4-0.1,0.5v13.6c0,0.9-0.7,1.5-1.4,1.5c-0.9,0-1.6-0.6-1.6-1.5V214.6z"/>
			<path id="XMLID_351_" class="st2" d="M275.4,228.4c0-8.6,7.1-15.4,15.9-15.4c3.7,0,7.1,1.3,9.8,3.4c0.6,0.4,0.8,1.4,0.2,2.1
				c-0.5,0.6-1.4,0.8-2.1,0.3c-2.2-1.8-5-2.8-7.9-2.8c-7.2,0-12.9,5.6-12.9,12.4c0,6.9,5.7,12.5,12.9,12.5c3,0,5.7-1,7.9-2.7
				c0.7-0.5,1.6-0.3,2.1,0.3c0.6,0.7,0.4,1.6-0.3,2.2c-2.6,2-6.1,3.3-9.7,3.3C282.5,243.9,275.4,237.1,275.4,228.4z"/>
			<path id="XMLID_349_" class="st2" d="M336.3,225.2c0-5.4-4.4-9.1-9.8-9.1c-5.4,0-9.8,3.7-9.8,9.1v17.2v0.2c0,0.1-0.1,0.2-0.1,0.3
				c-0.1,0.1-0.1,0.2-0.1,0.3c-0.2,0.4-0.5,0.6-0.9,0.8c0,0-0.1,0.1-0.1,0.1h-0.1h-0.2c-0.4,0-0.9-0.2-1.2-0.5
				c-0.1-0.2-0.2-0.3-0.3-0.5c-0.1-0.2-0.1-0.3-0.1-0.5v-17.2v-0.5v-23.4c0-0.8,0.7-1.5,1.5-1.5c0.9,0,1.6,0.7,1.6,1.5v16.3
				c2.3-2.8,5.9-4.5,9.8-4.5c7.1,0,12.9,5,12.9,12.2v17.2c0,0.8-0.7,1.5-1.6,1.5c-0.8,0-1.5-0.7-1.5-1.5V225.2z"/>
			<path id="XMLID_346_" class="st2" d="M350.1,228.6c0-8.6,6.7-15.5,15-15.5c7.9,0,14.2,6.3,14.9,14.4v0.1v0.2
				c0,0.8-0.7,1.4-1.5,1.4h-25.3c0.3,6.7,5.6,11.9,12,11.9c4.1,0,7.9-2.1,10-5.6c0.4-0.8,1.4-0.9,2-0.5c0.7,0.5,0.9,1.4,0.5,2.1
				c-2.6,4.2-7.2,7-12.5,7C356.7,243.9,350.1,237,350.1,228.6z M353.3,226.1h23.4c-1-5.8-5.9-10-11.6-10
				C359.3,216.1,354.4,220.2,353.3,226.1z"/>
		</g>
	</g>
</g>
</svg>
