<?xml version="1.0" encoding="utf-8"?>
<!-- Generator: Adobe Illustrator 19.0.0, SVG Export Plug-In . SVG Version: 6.00 Build 0)  -->
<svg version="1.1" id="Capa_1" xmlns="http://www.w3.org/2000/svg" xmlns:xlink="http://www.w3.org/1999/xlink" x="0px" y="0px"
	 viewBox="-452 248.8 53.8 65.2" style="enable-background:new -452 248.8 53.8 65.2;" xml:space="preserve">
<style type="text/css">
	.st0{fill:#FFFFFF;}
	.st1{fill:#FFFFFF;stroke:#333333;stroke-width:3;stroke-linecap:round;stroke-linejoin:round;stroke-miterlimit:10;}
	.st2{fill:#FFFFFF;stroke:#333333;stroke-width:2;stroke-linecap:round;stroke-linejoin:round;stroke-miterlimit:10;}
	.st3{fill:#333333;}
</style>
<g id="XMLID_302_">
	<g id="XMLID_308_">
		<polygon id="XMLID_311_" class="st0" points="-418.3,255.6 -404.1,270 -418.3,270 		"/>
		<polygon id="XMLID_310_" class="st1" points="-419.5,253.5 -447.5,253.5 -447.5,310.5 -402.5,310.5 -402.5,269.5 -419.5,269.5 		
			"/>
		<polyline id="XMLID_309_" class="st1" points="-402.8,268.5 -410.7,260.7 -418.7,253 		"/>
	</g>
	<g id="XMLID_303_">
		<circle id="XMLID_307_" class="st2" cx="-425.6" cy="283.2" r="11.8"/>
		<g id="XMLID_304_">
			<path id="XMLID_305_" class="st3" d="M-434.7,284.2h1.3c0-0.4-0.1-1.2,0-1.7h-1.3v-1.5h1.6c1-3.7,4.2-6.3,8.2-6.3
				c1.4,0,2.4,0.3,2.4,0.3l-0.6,2.2c0,0-0.9-0.3-1.9-0.3c-2.7,0-4.8,1.6-5.6,4.1h6.8l-0.3,1.5h-6.8c-0.1,0.5-0.1,1.2,0,1.7h6.5
				l-0.3,1.5h-5.8c0.7,2.5,2.9,4.2,5.6,4.2c1.2,0,2.2-0.3,2.2-0.3l0.5,2.2c0,0-1.2,0.4-2.7,0.4c-4.1,0-7.3-2.7-8.2-6.5h-1.6V284.2z"
				/>
		</g>
	</g>
</g>
</svg>
