<?xml version="1.0" encoding="utf-8"?>
<!-- Generator: Adobe Illustrator 19.0.0, SVG Export Plug-In . SVG Version: 6.00 Build 0)  -->
<svg version="1.1" id="Capa_1" xmlns="http://www.w3.org/2000/svg" xmlns:xlink="http://www.w3.org/1999/xlink" x="0px" y="0px"
	 viewBox="0 0 53.8 65.2" style="enable-background:new 0 0 53.8 65.2;" xml:space="preserve">
<style type="text/css">
	.st0{fill:#CCCCCC;}
	.st1{fill:#CCCCCC;stroke:#333333;stroke-width:3;stroke-linecap:round;stroke-linejoin:round;stroke-miterlimit:10;}
	.st2{fill:#CCCCCC;stroke:#333333;stroke-width:2;stroke-linecap:round;stroke-linejoin:round;stroke-miterlimit:10;}
	.st3{fill:#333333;}
</style>
<g id="XMLID_70_">
	<g id="XMLID_76_">
		<polygon id="XMLID_79_" class="st0" points="33.7,6.6 47.9,21 33.7,21 		"/>
		<polygon id="XMLID_78_" class="st1" points="32.4,4.5 4.4,4.5 4.4,61.5 49.4,61.5 49.4,20.5 32.4,20.5 		"/>
		<polyline id="XMLID_77_" class="st1" points="49.2,19.5 41.3,11.7 33.3,3.9 		"/>
	</g>
	<g id="XMLID_71_">
		<circle id="XMLID_75_" class="st2" cx="26.4" cy="34.2" r="11.8"/>
		<g id="XMLID_72_">
			<path id="XMLID_73_" class="st3" d="M17.3,35.2h1.3c0-0.4-0.1-1.2,0-1.7h-1.3v-1.5h1.6c1-3.7,4.2-6.3,8.2-6.3
				c1.4,0,2.4,0.3,2.4,0.3l-0.6,2.2c0,0-0.9-0.3-1.9-0.3c-2.7,0-4.8,1.6-5.6,4.1h6.8l-0.3,1.5h-6.8c-0.1,0.5-0.1,1.2,0,1.7h6.5
				l-0.3,1.5h-5.8c0.7,2.5,2.9,4.2,5.6,4.2c1.2,0,2.2-0.3,2.2-0.3l0.5,2.2c0,0-1.2,0.4-2.7,0.4c-4.1,0-7.3-2.7-8.2-6.5h-1.6V35.2z"
				/>
		</g>
	</g>
</g>
</svg>
