<?xml version="1.0" encoding="utf-8"?>
<!-- Generator: Adobe Illustrator 19.0.0, SVG Export Plug-In . SVG Version: 6.00 Build 0)  -->
<svg version="1.1" id="Capa_1" xmlns="http://www.w3.org/2000/svg" xmlns:xlink="http://www.w3.org/1999/xlink" x="0px" y="0px"
	 viewBox="0 0 53.8 54.6" style="enable-background:new 0 0 53.8 54.6;" xml:space="preserve">
<style type="text/css">
	.st0{fill:#CCCCCC;}
</style>
<g id="XMLID_54_">
	<path id="XMLID_66_" class="st0" d="M25.5,11c-2.1,1.5-6.1,2.6-10.8,2.6S6,12.5,3.9,11c-0.9,0.7-1.4,1.5-1.4,2.3
		c0,2.7,5.5,4.9,12.2,4.9s12.2-2.2,12.2-4.9C26.9,12.5,26.4,11.7,25.5,11z"/>
	<path id="XMLID_65_" class="st0" d="M25.5,24.7c-2.1,1.5-6.1,2.6-10.8,2.6S6,26.3,3.9,24.7C3,25.4,2.5,26.2,2.5,27
		c0,2.7,5.5,4.9,12.2,4.9s12.2-2.2,12.2-4.9C26.9,26.2,26.4,25.4,25.5,24.7z"/>
	<ellipse id="XMLID_64_" class="st0" cx="14.7" cy="6.4" rx="12.2" ry="4.9"/>
	<g id="XMLID_62_">
		<path id="XMLID_63_" class="st0" d="M23.5,40.7c0-0.5,0.2-1,0.5-1.4c-2.2,1.1-5.6,1.8-9.4,1.8C10,41,6,40,3.9,38.4
			c-0.9,0.7-1.4,1.5-1.4,2.3c0,2.7,5.5,4.9,12.2,4.9c4.5,0,8.4-1,10.5-2.4C24.2,42.5,23.5,41.6,23.5,40.7z"/>
	</g>
	<g id="XMLID_60_">
		<path id="XMLID_61_" class="st0" d="M23.5,47.6c0-0.5,0.2-1,0.5-1.4c-2.2,1.1-5.6,1.8-9.4,1.8c-4.7,0-8.7-1.1-10.8-2.6
			C3,46,2.5,46.7,2.5,47.6c0,2.7,5.5,4.9,12.2,4.9c4.5,0,8.4-1,10.5-2.4C24.2,49.3,23.5,48.5,23.5,47.6z"/>
	</g>
	<path id="XMLID_59_" class="st0" d="M23.5,33.9c0-0.5,0.2-1,0.5-1.4c-2.2,1.1-5.6,1.8-9.4,1.8c-4.7,0-8.7-1.1-10.8-2.6
		C3,32.3,2.5,33,2.5,33.9c0,2.7,5.5,4.9,12.2,4.9c4.5,0,8.4-1,10.5-2.4C24.2,35.6,23.5,34.8,23.5,33.9z"/>
	<ellipse id="XMLID_58_" class="st0" cx="39" cy="33.9" rx="12.2" ry="4.9"/>
	<path id="XMLID_57_" class="st0" d="M49.8,38.4C47.8,40,43.7,41,39,41s-8.7-1.1-10.8-2.6c-0.9,0.7-1.4,1.5-1.4,2.3
		c0,2.7,5.5,4.9,12.2,4.9s12.2-2.2,12.2-4.9C51.3,39.9,50.7,39.1,49.8,38.4z"/>
	<path id="XMLID_56_" class="st0" d="M49.8,45.3c-2.1,1.5-6.1,2.6-10.8,2.6s-8.7-1.1-10.8-2.6c-0.9,0.7-1.4,1.5-1.4,2.3
		c0,2.7,5.5,4.9,12.2,4.9s12.2-2.2,12.2-4.9C51.3,46.7,50.7,46,49.8,45.3z"/>
	<path id="XMLID_55_" class="st0" d="M25.5,17.9c-2.1,1.5-6.1,2.6-10.8,2.6S6,19.4,3.9,17.9c-0.9,0.7-1.4,1.5-1.4,2.3
		C2.5,22.8,8,25,14.7,25s12.2-2.2,12.2-4.9C26.9,19.3,26.4,18.5,25.5,17.9z"/>
</g>
</svg>
