<?xml version="1.0" encoding="utf-8"?>
<!-- Generator: Adobe Illustrator 19.0.0, SVG Export Plug-In . SVG Version: 6.00 Build 0)  -->
<svg version="1.1" id="Capa_1" xmlns="http://www.w3.org/2000/svg" xmlns:xlink="http://www.w3.org/1999/xlink" x="0px" y="0px"
	 viewBox="-452 253.4 53.8 54.6" style="enable-background:new -452 253.4 53.8 54.6;" xml:space="preserve">
<style type="text/css">
	.st0{fill:#FFFFFF;}
</style>
<g id="XMLID_280_">
	<path id="XMLID_298_" class="st0" d="M-426.5,264.7c-2.1,1.5-6.1,2.6-10.8,2.6s-8.7-1.1-10.8-2.6c-0.9,0.7-1.4,1.5-1.4,2.3
		c0,2.7,5.5,4.9,12.2,4.9c6.7,0,12.2-2.2,12.2-4.9C-425.1,266.2-425.6,265.4-426.5,264.7z"/>
	<path id="XMLID_297_" class="st0" d="M-426.5,278.4c-2.1,1.5-6.1,2.6-10.8,2.6s-8.7-1.1-10.8-2.6c-0.9,0.7-1.4,1.5-1.4,2.3
		c0,2.7,5.5,4.9,12.2,4.9c6.7,0,12.2-2.2,12.2-4.9C-425.1,279.9-425.6,279.1-426.5,278.4z"/>
	<ellipse id="XMLID_296_" class="st0" cx="-437.3" cy="260.2" rx="12.2" ry="4.9"/>
	<g id="XMLID_294_">
		<path id="XMLID_295_" class="st0" d="M-428.5,294.4c0-0.5,0.2-1,0.5-1.4c-2.2,1.1-5.6,1.8-9.4,1.8c-4.7,0-8.7-1.1-10.8-2.6
			c-0.9,0.7-1.4,1.5-1.4,2.3c0,2.7,5.5,4.9,12.2,4.9c4.5,0,8.4-1,10.5-2.4C-427.8,296.2-428.5,295.3-428.5,294.4z"/>
	</g>
	<g id="XMLID_286_">
		<path id="XMLID_287_" class="st0" d="M-428.5,301.3c0-0.5,0.2-1,0.5-1.4c-2.2,1.1-5.6,1.8-9.4,1.8c-4.7,0-8.7-1.1-10.8-2.6
			c-0.9,0.7-1.4,1.5-1.4,2.3c0,2.7,5.5,4.9,12.2,4.9c4.5,0,8.4-1,10.5-2.4C-427.8,303.1-428.5,302.2-428.5,301.3z"/>
	</g>
	<path id="XMLID_285_" class="st0" d="M-428.5,287.6c0-0.5,0.2-1,0.5-1.4c-2.2,1.1-5.6,1.8-9.4,1.8c-4.7,0-8.7-1.1-10.8-2.6
		c-0.9,0.7-1.4,1.5-1.4,2.3c0,2.7,5.5,4.9,12.2,4.9c4.5,0,8.4-1,10.5-2.4C-427.8,289.3-428.5,288.5-428.5,287.6z"/>
	<ellipse id="XMLID_284_" class="st0" cx="-412.9" cy="287.6" rx="12.2" ry="4.9"/>
	<path id="XMLID_283_" class="st0" d="M-402.1,292.2c-2.1,1.5-6.1,2.6-10.8,2.6c-4.7,0-8.7-1.1-10.8-2.6c-0.9,0.7-1.4,1.5-1.4,2.3
		c0,2.7,5.5,4.9,12.2,4.9c6.7,0,12.2-2.2,12.2-4.9C-400.7,293.6-401.2,292.8-402.1,292.2z"/>
	<path id="XMLID_282_" class="st0" d="M-402.1,299c-2.1,1.5-6.1,2.6-10.8,2.6c-4.7,0-8.7-1.1-10.8-2.6c-0.9,0.7-1.4,1.5-1.4,2.3
		c0,2.7,5.5,4.9,12.2,4.9c6.7,0,12.2-2.2,12.2-4.9C-400.7,300.5-401.2,299.7-402.1,299z"/>
	<path id="XMLID_281_" class="st0" d="M-426.5,271.6c-2.1,1.5-6.1,2.6-10.8,2.6s-8.7-1.1-10.8-2.6c-0.9,0.7-1.4,1.5-1.4,2.3
		c0,2.7,5.5,4.9,12.2,4.9c6.7,0,12.2-2.2,12.2-4.9C-425.1,273-425.6,272.3-426.5,271.6z"/>
</g>
</svg>
