<?xml version="1.0" encoding="utf-8"?>
<!-- Generator: Adobe Illustrator 19.0.0, SVG Export Plug-In . SVG Version: 6.00 Build 0)  -->
<svg version="1.1" id="Capa_1" xmlns="http://www.w3.org/2000/svg" xmlns:xlink="http://www.w3.org/1999/xlink" x="0px" y="0px"
	 viewBox="-426 228.7 105.5 105.3" style="enable-background:new -426 228.7 105.5 105.3;" xml:space="preserve">
<style type="text/css">
	.st0{fill:#FF7B1E;}
	.st1{fill:#1EA7FF;}
	.st2{fill:#51D200;}
	.st3{fill:#E9F000;}
</style>
<g>
	<path class="st0" d="M-407.9,317.3L-407.9,317.3c-4.7,0-8.5-3.8-8.5-8.5v-50.6c0-4.7,3.8-8.5,8.5-8.5h0c4.7,0,8.5,3.8,8.5,8.5v50.6
		C-399.4,313.4-403.2,317.3-407.9,317.3z"/>
	<path class="st1" d="M-384.8,303.5L-384.8,303.5c-4.7,0-8.5-3.8-8.5-8.5v-50.6c0-4.7,3.8-8.5,8.5-8.5l0,0c4.7,0,8.5,3.8,8.5,8.5
		V295C-376.3,299.7-380.1,303.5-384.8,303.5z"/>
	<path class="st2" d="M-361.7,326.8L-361.7,326.8c-4.7,0-8.5-3.8-8.5-8.5v-50.6c0-4.7,3.8-8.5,8.5-8.5h0c4.7,0,8.5,3.8,8.5,8.5v50.6
		C-353.2,323-357,326.8-361.7,326.8z"/>
	<path class="st3" d="M-338.6,315.4L-338.6,315.4c-4.7,0-8.5-3.8-8.5-8.5v-50.6c0-4.7,3.8-8.5,8.5-8.5h0c4.7,0,8.5,3.8,8.5,8.5v50.6
		C-330.1,311.6-334,315.4-338.6,315.4z"/>
</g>
</svg>
