<?xml version="1.0" encoding="utf-8"?>
<!-- Generator: Adobe Illustrator 19.0.0, SVG Export Plug-In . SVG Version: 6.00 Build 0)  -->
<svg version="1.1" id="Capa_1" xmlns="http://www.w3.org/2000/svg" xmlns:xlink="http://www.w3.org/1999/xlink" x="0px" y="0px"
	 viewBox="-364 171.1 229.6 216.1" style="enable-background:new -364 171.1 229.6 216.1;" xml:space="preserve">
<style type="text/css">
	.st0{fill:#F7931E;}
	.st1{fill:#F7931E;stroke:#F7931E;stroke-miterlimit:10;}
	.st2{fill:#FFFFFF;}
	.st3{fill:#999999;}
</style>
<g id="XMLID_31_">
	<g id="XMLID_34_">
		<path id="XMLID_36_" class="st0" d="M-247.3,213.4c0.8,0,1.6-0.1,2.4-0.1c6.6,0,12.9,0.9,18.7,2.6c5.9-5.8,14.1-9.4,23.1-9.4
			c18.2,0,33,14.8,33,33c0,7.4-2.4,14.1-6.5,19.6c6.3,1.6,12,4.1,17,7.4l-0.3-0.4c2.5-4,4.4-8.4,5.7-13l9.5-2.1
			c1.7-0.3,1.8-1.8,1.8-3.5v-14.6c0-1.7-0.1-3.2-1.8-3.5l-9.6-2c-1.2-4.7-2.7-9.1-5-13.2l6.2-9c1-1.4,0.8-3.3-0.4-4.6l-10.3-10.3
			c-1.2-1.2-3.1-1.4-4.5-0.4l-8.9,6c-3.9-2.3-8.2-4.1-12.7-5.3l-2.2-11.7c-0.3-1.7-1.8-3.5-3.5-3.5h-14.6c-1.7,0-3.2,1.8-3.5,3.5
			l-2.2,11.4c-4.3,1.1-8.4,3-12.1,5.1l-9.9-6.6c-1.4-1-3.3-0.7-4.6,0.5l-10.3,10.3c-1.2,1.2-1.4,3.1-0.4,4.6L-247.3,213.4z"/>
		<path id="XMLID_35_" class="st1" d="M-145.2,307.4c0-22.5-22.3-40.7-49.8-40.7l0,0c0,0,0.1-1.2,0.1-1.7c0-23.3-24-42.1-53.6-42.1
			c-26.5,0-48.5,15.1-52.8,34.9c-21.4,6.4-36.7,23.5-36.7,43.6c0,18.8,11,37.9,30.3,45.2c4.4,2.8,12.1,3.2,17.6,3.2h95.8
			c0.5,0,7.2-0.6,7.7-0.7C-160.2,348.1-145.2,329.3-145.2,307.4z"/>
	</g>
	<g id="XMLID_32_">
		<path id="XMLID_47_" class="st2" d="M-331.1,376.4C-331.1,376.5-331.1,376.5-331.1,376.4v7.4c0,0.9-0.7,1.6-1.6,1.6
			c-0.9,0-1.7-0.7-1.7-1.6v-7.3v-0.1c0-1.7-1.5-3.1-3.2-3.1c-1.7,0-3.1,1.4-3.1,3.2v7.3c0,0.1,0,0.2,0,0.2v0.1c0,0.1,0,0.1-0.1,0.2
			c0,0,0,0.1,0,0.2c-0.3,0.6-0.9,1-1.5,1c-0.1,0-0.2,0-0.3,0c-0.7-0.2-1.3-0.8-1.3-1.6v-7.3l0,0v-4.8c0-1,0.7-1.7,1.6-1.7
			c0.7,0,1.2,0.3,1.5,0.9c1-0.6,2.1-0.9,3.3-0.9c2,0,3.7,0.8,4.9,2.1c1.1-1.3,2.9-2.1,4.9-2.1c3.6,0,6.4,2.9,6.4,6.5v7.3
			c0,0.9-0.7,1.6-1.6,1.6s-1.7-0.7-1.7-1.6v-7.3c0-1.8-1.4-3.2-3.1-3.2C-329.6,373.3-331,374.7-331.1,376.4z"/>
		<path id="XMLID_49_" class="st2" d="M-315.3,381.1c0.6-0.7,1.6-0.8,2.3-0.2c0.8,0.7,2.2,1.4,3.4,1.4c0.8,0,1.6-0.3,2.1-0.6
			c0.4-0.4,0.6-0.7,0.6-0.9c0-0.2,0-0.2-0.1-0.3c0-0.1-0.2-0.2-0.4-0.4c-0.4-0.3-1.4-0.7-2.5-0.9l0,0c-1-0.2-1.9-0.4-2.7-0.8
			c-0.8-0.4-1.6-1-2.1-1.8c-0.3-0.6-0.5-1.2-0.5-2c0-1.4,0.8-2.6,1.8-3.4c1.1-0.7,2.4-1.1,3.8-1.1c2.1,0,3.7,1,4.6,1.7
			c0.7,0.5,1,1.5,0.5,2.3c-0.5,0.7-1.5,1-2.3,0.4c-1-0.7-1.9-1.1-2.8-1.1c-0.8,0-1.5,0.2-1.9,0.6c-0.4,0.3-0.5,0.6-0.5,0.7
			c0,0.1,0,0.2,0.1,0.2c0,0.1,0.1,0.2,0.3,0.3c0.4,0.3,1.2,0.6,2.3,0.7l0,0l0,0c1,0.2,2,0.5,2.9,0.9c0.8,0.4,1.7,1,2.2,1.8
			c0.4,0.6,0.6,1.3,0.6,2c0,1.5-0.8,2.8-2,3.6c-1.1,0.8-2.5,1.2-4,1.2c-2.4,0-4.3-1.1-5.5-2.1C-315.8,382.8-315.9,381.7-315.3,381.1
			z"/>
		<path id="XMLID_51_" class="st2" d="M-286.4,376.4C-286.4,376.5-286.4,376.5-286.4,376.4v7.4c0,0.9-0.7,1.6-1.6,1.6
			s-1.7-0.7-1.7-1.6v-7.3v-0.1c0-1.7-1.5-3.1-3.2-3.1s-3.1,1.4-3.1,3.2v7.3c0,0.1,0,0.2,0,0.2v0.1c0,0.1,0,0.1-0.1,0.2
			c0,0,0,0.1,0,0.2c-0.3,0.6-0.9,1-1.5,1c-0.1,0-0.2,0-0.3,0c-0.7-0.2-1.3-0.8-1.3-1.6v-7.3l0,0v-4.8c0-1,0.7-1.7,1.6-1.7
			c0.7,0,1.2,0.3,1.5,0.9c1-0.6,2.1-0.9,3.3-0.9c2,0,3.7,0.8,4.9,2.1c1.1-1.3,2.9-2.1,4.9-2.1c3.6,0,6.4,2.9,6.4,6.5v7.3
			c0,0.9-0.7,1.6-1.6,1.6s-1.7-0.7-1.7-1.6v-7.3c0-1.8-1.4-3.2-3.1-3.2C-285,373.3-286.4,374.7-286.4,376.4z"/>
		<path id="XMLID_53_" class="st3" d="M-270.3,380.1c0.6-0.7,1.6-0.8,2.3-0.2c1.4,1.1,3.7,2.4,5.9,2.4c1.5,0,2.9-0.5,3.9-1.1
			c0.9-0.7,1.3-1.5,1.3-2.2c0-0.4-0.1-0.7-0.3-1c-0.2-0.3-0.5-0.6-0.9-0.9c-0.9-0.6-2.4-1.1-4.2-1.5h-0.1c-1.5-0.3-2.8-0.6-4-1.2
			c-1.2-0.6-2.2-1.3-2.9-2.4c-0.5-0.7-0.7-1.6-0.7-2.5c0-1.9,1.1-3.5,2.5-4.5c1.5-1.1,3.3-1.6,5.4-1.6c3,0,5.2,1.5,6.7,2.5
			c0.7,0.5,0.9,1.5,0.4,2.2s-1.5,1-2.2,0.5c-1.6-1.1-3.1-2-5-2c-1.4,0-2.6,0.4-3.5,1.1s-1.2,1.3-1.2,2c0,0.4,0.1,0.6,0.2,0.9
			c0.2,0.2,0.4,0.5,0.8,0.8c0.8,0.6,2.2,1.1,3.9,1.4h0.1c1.6,0.3,3,0.7,4.3,1.3c1.3,0.6,2.4,1.4,3.1,2.6c0.5,0.7,0.7,1.7,0.7,2.6
			c0,2-1.1,3.7-2.7,4.8c-1.5,1.1-3.5,1.8-5.7,1.8c-3.3,0-6.2-1.7-7.9-3.1C-270.7,381.8-270.8,380.8-270.3,380.1z"/>
		<path id="XMLID_55_" class="st3" d="M-248.9,383.8v-18.3c0-1,0.7-1.7,1.7-1.7l0,0c0,0,0,0,0.1,0h10c0.9,0,1.7,0.7,1.7,1.7
			s-0.8,1.7-1.7,1.7h-8.4v5.7h7.2c0.9,0,1.7,0.8,1.7,1.7c0,1-0.8,1.7-1.7,1.7h-7.2v5.7h8.4c0.9,0,1.7,0.8,1.7,1.7s-0.8,1.7-1.7,1.7
			h-10c-0.1,0-0.1,0-0.1,0l0,0C-248.2,385.5-248.9,384.7-248.9,383.8z"/>
		<path id="XMLID_57_" class="st3" d="M-215.6,382.9c0.3,0.9-0.2,1.9-1.1,2.2c-0.1,0-0.4,0.1-0.7,0.1l0,0c-0.3,0-0.8-0.1-1.2-0.3
			c-0.4-0.2-0.7-0.6-1-1.1c-0.4-0.9-0.7-2-0.7-3.7c0-0.6-0.2-1-0.4-1.3c-0.2-0.3-0.6-0.7-0.9-0.9c-0.6-0.4-1.5-0.7-1.7-0.7h-3.7v6.7
			c0,0.9-0.8,1.7-1.7,1.7c-1,0-1.7-0.8-1.7-1.7v-18.3c0-1,0.7-1.7,1.7-1.7l0,0h5.5c3.7,0,6.6,3,6.6,6.7c0,2-0.9,3.8-2.4,5.1
			c0.4,0.3,0.8,0.7,1.1,1.1c0.6,0.9,1,2,1,3.3c0,0.9,0.1,1.5,0.1,1.8C-216.2,382-215.8,382.4-215.6,382.9z M-220,370.5
			c0-1.8-1.4-3.2-3.2-3.2h-3.8v6.4h3.8C-221.4,373.6-220,372.2-220,370.5z"/>
		<path id="XMLID_60_" class="st3" d="M-204.2,385.2c-0.1-0.1-0.1-0.1-0.2-0.2c0,0,0,0,0-0.1c-0.1-0.1-0.1-0.1-0.2-0.2l0,0
			c0-0.1-0.1-0.2-0.2-0.2l-7.6-18.1c-0.4-0.8,0-1.9,0.9-2.2c0.8-0.4,1.8,0,2.2,0.9l6,14.3l6-14.3c0.4-0.9,1.4-1.3,2.2-0.9
			c0.9,0.3,1.3,1.4,0.9,2.2l-7.6,18.1c0,0.1-0.1,0.2-0.1,0.2l0,0c0,0.1-0.1,0.1-0.2,0.2c0,0.1,0,0.1-0.1,0.1
			c-0.1,0.1-0.1,0.1-0.2,0.2c0,0,0,0-0.1,0s-0.2,0.1-0.2,0.2c0,0,0,0-0.1,0s-0.2,0-0.2,0.1c0,0,0,0-0.1,0s-0.2,0-0.3,0s-0.2,0-0.3,0
			c0,0,0,0-0.1,0s-0.2-0.1-0.2-0.1l0,0l0,0C-203.9,385.3-204,385.2-204.2,385.2C-204.1,385.2-204.1,385.2-204.2,385.2z"/>
		<path id="XMLID_62_" class="st3" d="M-188.9,383.8v-18.3c0-1,0.7-1.7,1.7-1.7l0,0c0,0,0,0,0.1,0h10c0.9,0,1.7,0.7,1.7,1.7
			s-0.8,1.7-1.7,1.7h-8.4v5.7h7.2c0.9,0,1.7,0.8,1.7,1.7c0,1-0.8,1.7-1.7,1.7h-7.2v5.7h8.4c0.9,0,1.7,0.8,1.7,1.7s-0.8,1.7-1.7,1.7
			h-10c-0.1,0-0.1,0-0.1,0l0,0C-188.2,385.5-188.9,384.7-188.9,383.8z"/>
		<path id="XMLID_64_" class="st3" d="M-155.6,382.9c0.3,0.9-0.2,1.9-1.1,2.2c-0.1,0-0.4,0.1-0.7,0.1l0,0c-0.3,0-0.8-0.1-1.2-0.3
			c-0.4-0.2-0.7-0.6-1-1.1c-0.4-0.9-0.7-2-0.7-3.7c0-0.6-0.2-1-0.4-1.3c-0.2-0.3-0.6-0.7-0.9-0.9c-0.7-0.4-1.5-0.7-1.7-0.7h-3.7v6.7
			c0,0.9-0.8,1.7-1.7,1.7s-1.7-0.8-1.7-1.7v-18.3c0-1,0.7-1.7,1.7-1.7l0,0h5.5c3.7,0,6.6,3,6.6,6.7c0,2-0.9,3.8-2.4,5.1
			c0.4,0.3,0.8,0.7,1.1,1.1c0.6,0.9,1,2,1,3.3c0,0.9,0.1,1.5,0.1,1.8C-156.2,382-155.8,382.4-155.6,382.9z M-160,370.5
			c0-1.8-1.4-3.2-3.2-3.2h-3.8v6.4h3.8C-161.4,373.6-160,372.2-160,370.5z"/>
	</g>
</g>
</svg>
