<?xml version="1.0" encoding="UTF-8" standalone="no"?>
<!-- Generator: Adobe Illustrator 19.0.0, SVG Export Plug-In . SVG Version: 6.00 Build 0)  -->

<svg
   xmlns:dc="http://purl.org/dc/elements/1.1/"
   xmlns:cc="http://creativecommons.org/ns#"
   xmlns:rdf="http://www.w3.org/1999/02/22-rdf-syntax-ns#"
   xmlns:svg="http://www.w3.org/2000/svg"
   xmlns="http://www.w3.org/2000/svg"
   xmlns:sodipodi="http://sodipodi.sourceforge.net/DTD/sodipodi-0.dtd"
   xmlns:inkscape="http://www.inkscape.org/namespaces/inkscape"
   version="1.1"
   id="Capa_1"
   x="0px"
   y="0px"
   viewBox="0 0 299.99999 150"
   xml:space="preserve"
   inkscape:version="0.91 r13725"
   sodipodi:docname="logo02.svg"
   width="300"
   height="150"><metadata
     id="metadata38"><rdf:RDF><cc:Work
         rdf:about=""><dc:format>image/svg+xml</dc:format><dc:type
           rdf:resource="http://purl.org/dc/dcmitype/StillImage" /><dc:title></dc:title></cc:Work></rdf:RDF></metadata><defs
     id="defs36" /><sodipodi:namedview
     pagecolor="#ffffff"
     bordercolor="#666666"
     borderopacity="1"
     objecttolerance="10"
     gridtolerance="10"
     guidetolerance="10"
     inkscape:pageopacity="0"
     inkscape:pageshadow="2"
     inkscape:window-width="1366"
     inkscape:window-height="705"
     id="namedview34"
     showgrid="false"
     inkscape:zoom="0.79844428"
     inkscape:cx="138.56118"
     inkscape:cy="103.94707"
     inkscape:window-x="-8"
     inkscape:window-y="-8"
     inkscape:window-maximized="1"
     inkscape:current-layer="Capa_1"
     fit-margin-top="0"
     fit-margin-left="0"
     fit-margin-right="0"
     fit-margin-bottom="0" /><style
     type="text/css"
     id="style3">
	.st0{fill:#F7931E;}
	.st1{fill:#4D4D4D;}
</style><g
     id="g3366"
     transform="translate(11.438826,-14.825163)"><g
       transform="translate(-79.988826,25.650337)"
       id="XMLID_5_"><path
         style="fill:#f7931e"
         inkscape:connector-curvature="0"
         d="m 347.7,67.8 c -0.3,-1.8 -1.9,-2.6 -1.9,-2.6 l -7.3,-0.1 c -7.2,-0.2 -5.1,0.1 -12.5,4.1 -7.4,3.9 -12,-0.4 -14.2,-2.3 -2.2,-1.9 -4.6,-1.7 -4.6,-1.7 -9,-0.8 -10.2,10.9 -10.2,10.9 1.3,0.1 1.1,3.5 1.1,3.5 0.1,1.1 -0.6,1.1 -0.6,1.1 0,0 -9.5,0.2 -11.1,0 -1.6,-0.2 -1.4,-0.7 -1.7,-1 -0.3,-0.2 0,-2.2 0.2,-2.9 0.2,-0.6 0.8,-0.9 0.8,-0.9 0.6,-7 4.9,-16.1 10,-19.6 5.1,-3.5 8,-3.6 11.6,-4.2 3.6,-0.7 4.1,-4 4.1,-4 l 0.1,-5.8 c -1.2,-0.1 -0.9,-1.8 -0.9,-1.8 -0.2,-2.4 1.1,-2.3 1.1,-2.3 l 2,0 c -0.8,-1.2 0.6,-1.7 0.6,-1.7 l 2,0 0,-6.1 c -0.9,-0.5 -1.6,-1.2 -1.6,-1.2 l -6.8,1.6 c -6.4,1.6 -6.8,-4.8 -6.8,-4.8 0.3,-5.7 5.7,-5.5 5.7,-5.5 l 7.8,1.9 c 0,0 1,-1.6 4.9,-1.9 3.9,-0.3 6,1.9 6,1.9 l 7.6,-1.9 c 5.2,-0.1 5.8,5.1 5.8,5.1 -0.1,6.5 -6.6,5.5 -6.6,5.5 l -7.1,-1.6 c -0.4,0.5 -1.6,1.1 -1.6,1.1 l 0,5.9 2.4,0.1 c 1.4,0.8 0.5,1.6 0.5,1.6 0,0 1.2,0.1 2.3,0.1 1.1,0 0.8,3.1 0.8,3.1 -0.1,0.8 -0.7,1 -0.7,1 l 0.2,5.5 c 0.7,4.5 4.4,4.8 4.4,4.8 l 12.3,0.1 c 2.1,-1.2 1.9,-2.6 1.9,-2.6 l 6.9,0.1 0,-21.7 -42.7,-24.6 -42.5,24.5 0,49.1 42.5,24.5 42.5,-24.5 0,-9.8 -6.7,0 z"
         class="st0"
         id="XMLID_6_" /><path
         style="fill:#f7931e"
         inkscape:connector-curvature="0"
         d="m 125.2,4 -42.5,24.6 0,49.1 13,7.5 9.4,-17.7 c 1.1,-2 3.3,-3.1 5.5,-2.9 3.4,-5.5 5.9,-4.4 5.9,-4.4 0,0 23.6,7.8 28,8.9 4.5,1.1 6.5,-6 9.5,-11.7 1.4,-2.6 -0.6,-5.1 -3.3,-7 l -1.7,3.2 c -1.4,2.7 -4.7,3.7 -7.4,2.3 L 108.2,38.2 c -2.7,-1.4 -3.7,-4.7 -2.3,-7.4 l 3.4,-6.4 c 1.4,-2.7 4.7,-3.7 7.4,-2.3 l 33.4,17.7 c 2.7,1.4 3.7,4.7 2.3,7.4 l -1,1.8 c 3.1,2.3 5.9,5.3 4.4,8.3 -3,5.7 -6.1,14.9 -10.5,13.8 -4.5,-1.1 -28.9,-9 -28.9,-9 0,0 -1.3,-0.8 -4,3 0,0 0.1,0 0.1,0 l 0.6,0.3 c 2.7,1.4 3.7,4.7 2.3,7.4 l -9.7,18.2 19.4,11.2 42.5,-24.5 0,-49.1 L 125.2,4 Z"
         class="st0"
         id="XMLID_7_" /><path
         style="fill:#f7931e"
         inkscape:connector-curvature="0"
         d="m 227,78.6 c -0.3,-0.5 0.5,-0.9 0.5,-0.9 0,0 -10.2,-16.2 -10.4,-16.7 -0.2,-0.5 -0.8,0 -1.1,0.1 -0.3,0.1 -1.2,0 -1.4,-0.3 -0.3,-0.3 -0.4,-0.6 -3,-4.8 -2.6,-4.1 -7,-2.3 -9.9,-0.9 -2.8,1.4 -2.4,3.3 -1.9,4.2 0.5,1 -0.2,1.8 -0.2,1.8 0,0 -5.1,3.2 -5.6,3.4 -0.5,0.2 -1.5,-0.4 -1.5,-0.4 0,0 -5.9,-9.8 -6.5,-10.8 -0.6,-1 0.1,-1.6 0.1,-1.6 l 5.2,-3.4 c 0.4,-0.3 0.9,-0.2 0.9,-0.2 1.2,0.9 4.5,1.2 5.6,1 1.1,-0.2 1.6,-3.9 1.6,-3.9 -0.8,-2.8 7.3,-7.4 16.4,-11.4 9.1,-4 19.7,-4.3 22.3,-2.8 2.6,1.5 -1.2,1.7 -1.2,1.7 -4.4,0.2 -6.6,1.6 -10.6,4.3 -3.9,2.7 -4.9,7.6 -5.2,9.1 -0.2,1.6 2.8,6.7 3.6,7.6 0.7,0.9 0.6,1.9 0,2.1 -0.7,0.1 -0.4,1 -0.4,1 l 9.9,16.7 c 0.7,-0.4 1.1,0.1 1.1,0.1 0,0 3.9,6 9,13.7 l 16.8,-9.7 0,-49 -42.4,-24.6 -42.5,24.5 0,49.1 42.5,24.5 16.2,-9.4 C 230.5,84.9 227.1,78.8 227,78.6 Z"
         class="st0"
         id="XMLID_8_" /></g><g
       transform="matrix(0.65997225,0,0,0.65997225,-5.6757614,63.807614)"
       id="XMLID_111_"><g
         id="XMLID_1_"><path
           style="fill:#4d4d4d"
           inkscape:connector-curvature="0"
           d="m 23.5,120.1 c 0,0 0,0.1 0,0.1 l 0,8.4 c 0,1 -0.9,1.9 -1.9,1.9 -1,0 -1.9,-0.9 -1.9,-1.9 l 0,-8.4 c 0,0 0,-0.1 0,-0.1 0,-2 -1.7,-3.6 -3.7,-3.6 -2,0 -3.6,1.6 -3.6,3.7 l 0,8.4 c 0,0.1 0,0.2 0,0.2 0,0 0,0.1 0,0.1 0,0.1 0,0.1 -0.1,0.2 0,0 0,0.1 0,0.2 -0.3,0.6 -1,1.1 -1.8,1.1 -0.1,0 -0.2,0 -0.4,0 -0.9,-0.2 -1.5,-0.9 -1.5,-1.8 l 0,-8.4 c 0,0 0,0 0,0 l 0,-5.5 c 0,-1.1 0.9,-1.9 1.9,-1.9 0.7,0 1.4,0.4 1.7,1.1 1.1,-0.7 2.5,-1.1 3.8,-1.1 2.2,0 4.2,0.9 5.6,2.5 1.3,-1.5 3.3,-2.5 5.6,-2.5 4.1,0 7.4,3.3 7.4,7.5 l 0,8.4 c 0,1 -0.9,1.9 -1.9,1.9 -1,0 -1.9,-0.9 -1.9,-1.9 l 0,-8.4 c 0,-2 -1.6,-3.7 -3.6,-3.7 -2.1,-0.1 -3.7,1.5 -3.7,3.5 z"
           class="st1"
           id="XMLID_2_" /><path
           style="fill:#4d4d4d"
           inkscape:connector-curvature="0"
           d="m 49.5,130.5 c -4.1,0 -7.4,-3.3 -7.4,-7.4 l 0,-8.5 c 0,-1 0.9,-1.9 1.9,-1.9 1.1,0 1.9,0.9 1.9,1.9 l 0,8.5 c 0,2 1.6,3.6 3.6,3.6 2.1,0 3.7,-1.6 3.7,-3.6 l 0,-8.5 c 0,-1 0.8,-1.9 1.8,-1.9 1,0 1.9,0.9 1.9,1.9 l 0,8.5 c 0.1,4 -3.4,7.4 -7.4,7.4 z"
           class="st1"
           id="XMLID_4_" /><path
           style="fill:#4d4d4d"
           inkscape:connector-curvature="0"
           d="m 65.3,105.6 c 1.1,0 2,0.9 2,2 l 0,21 c 0,1.1 -0.9,2 -2,2 -1.1,0 -2,-0.9 -2,-2 l 0,-21 c 0.1,-1.1 0.9,-2 2,-2 z"
           class="st1"
           id="XMLID_11_" /><path
           style="fill:#4d4d4d"
           inkscape:connector-curvature="0"
           d="m 80,114.7 c 0,1.1 -0.9,2 -2,2 l -0.9,0 0,9.9 c 1.1,0 2,0.9 2,2 0,1.1 -0.9,2 -2,2 -2.2,0 -3.9,-1.8 -3.9,-3.9 l 0,-9.9 -1,0 c -1.1,0 -2,-0.9 -2,-2 0,-1.1 0.9,-2 2,-2 l 1,0 0,-5.2 c 0,-1.1 0.9,-2 2,-2 1.1,0 2,0.9 2,2 l 0,5.2 0.8,0 c 1,-0.1 2,0.8 2,1.9 z"
           class="st1"
           id="XMLID_13_" /><path
           style="fill:#4d4d4d"
           inkscape:connector-curvature="0"
           d="m 90.1,108.3 c 0,1.1 -0.8,2 -1.9,2 -1.1,0 -1.9,-0.9 -1.9,-2 l 0,-0.7 c 0,-1.1 0.9,-1.9 1.9,-1.9 1.1,0 1.9,0.9 1.9,1.9 l 0,0.7 z m 0,6.4 0,13.9 c 0,1.1 -0.8,1.9 -1.9,1.9 -1.1,0 -1.9,-0.9 -1.9,-1.9 l 0,-13.9 c 0,-1.1 0.9,-2 1.9,-2 1,0 1.9,0.9 1.9,2 z"
           class="st1"
           id="XMLID_15_" /><path
           style="fill:#4d4d4d"
           inkscape:connector-curvature="0"
           d="m 95.3,125.4 c 0.6,-0.9 1.9,-1 2.7,-0.3 0.9,0.8 2.5,1.6 3.9,1.6 1,0 1.8,-0.3 2.4,-0.7 0.5,-0.4 0.6,-0.8 0.6,-1.1 0,-0.2 0,-0.2 -0.1,-0.4 0,-0.1 -0.2,-0.2 -0.5,-0.4 -0.5,-0.4 -1.6,-0.7 -2.8,-1 l 0,0 c -1.1,-0.2 -2.2,-0.5 -3.1,-0.9 -1,-0.5 -1.8,-1.1 -2.5,-2.1 -0.4,-0.6 -0.6,-1.4 -0.6,-2.2 0,-1.6 0.9,-3 2.1,-3.9 1.2,-0.9 2.7,-1.3 4.4,-1.3 2.5,0 4.2,1.2 5.3,2 0.9,0.6 1.1,1.7 0.6,2.6 -0.6,0.9 -1.7,1.1 -2.6,0.5 -1.1,-0.7 -2.1,-1.3 -3.3,-1.3 -0.9,0 -1.7,0.3 -2.1,0.6 -0.5,0.3 -0.6,0.6 -0.6,0.8 0,0.1 0,0.2 0.1,0.3 0,0.1 0.1,0.2 0.4,0.4 0.5,0.3 1.4,0.6 2.6,0.9 l 0,0 0,0 c 1.2,0.2 2.3,0.5 3.3,1 1,0.4 1.9,1.1 2.5,2.1 0.4,0.7 0.7,1.5 0.7,2.3 0,1.7 -1,3.2 -2.2,4.1 -1.3,0.9 -2.9,1.4 -4.6,1.4 -2.8,0 -4.9,-1.3 -6.3,-2.5 -0.8,-0.5 -0.9,-1.7 -0.3,-2.5 z"
           class="st1"
           id="XMLID_18_" /><path
           style="fill:#4d4d4d"
           inkscape:connector-curvature="0"
           d="m 112.4,121.6 c 0,-4.8 3.8,-8.9 8.7,-8.9 4.6,0 8.3,3.4 8.6,8.2 0,0 0,0.1 0,0.2 0,0.1 0,0.2 0,0.3 -0.1,0.9 -0.9,1.4 -1.8,1.4 l -11.3,0 c 0.2,0.8 0.6,1.7 1.2,2.3 0.7,0.9 2.2,1.5 3.4,1.6 1.3,0.1 2.8,-0.2 3.7,-0.9 0.7,-0.8 2.2,-0.7 2.7,-0.1 0.5,0.5 0.8,1.6 0,2.3 -1.7,1.6 -3.8,2.3 -6.4,2.3 -5,0.1 -8.8,-3.9 -8.8,-8.7 z m 3.9,-1.8 10.1,0 c -0.4,-1.4 -2.2,-3.5 -5.3,-3.8 -3,0.2 -4.5,2.4 -4.8,3.8 z"
           class="st1"
           id="XMLID_21_" /><path
           style="fill:#4d4d4d"
           inkscape:connector-curvature="0"
           d="m 145.5,114.6 c 0,1 -0.8,1.9 -1.9,1.9 -0.8,0 -1.5,0.2 -2.1,0.7 -0.7,0.4 -1.2,1 -1.6,1.7 -0.9,1.1 -1.3,2.5 -1.5,3 l 0,6.8 c 0,1 -0.9,1.9 -2,1.9 -1,0 -1.9,-0.9 -1.9,-1.9 l 0,-14 c 0,-1 0.9,-1.8 1.9,-1.8 1.1,0 2,0.8 2,1.8 l 0,0.2 c 0.2,-0.2 0.5,-0.5 0.7,-0.7 1.2,-0.8 2.7,-1.4 4.5,-1.4 1.1,-0.1 1.9,0.8 1.9,1.8 z"
           class="st1"
           id="XMLID_24_" /><path
           style="fill:#4d4d4d"
           inkscape:connector-curvature="0"
           d="m 164.2,115.5 -5.8,13.8 c 0,0.1 -0.1,0.2 -0.1,0.2 0,0 0,0 0,0 -0.1,0.1 -0.1,0.2 -0.2,0.2 0,0 0,0 0,0 -0.1,0.1 -0.1,0.1 -0.2,0.2 0,0 0,0 0,0 -0.1,0.1 -0.1,0.1 -0.2,0.2 0,0 0,0 -0.1,0 0,0 0,0 0,0 -0.1,0 -0.2,0 -0.3,0.1 0,0 0,0 -0.1,0 -0.1,0 -0.2,0 -0.4,0 -0.1,0 -0.2,0 -0.3,0 0,0 0,0 -0.1,0 -0.1,0 -0.2,-0.1 -0.3,-0.1 0,0 0,0 0,0 -0.1,0 -0.1,0 -0.1,0 -0.1,0 -0.2,-0.1 -0.3,-0.2 0,0 0,0 0,0 -0.1,-0.1 -0.1,-0.1 -0.2,-0.2 0,0 0,0 -0.1,0 0,-0.1 -0.1,-0.2 -0.2,-0.2 0,0 0,0 0,0 -0.1,0 -0.1,-0.1 -0.1,-0.2 l -5.8,-13.8 c -0.4,-1 0,-2 1,-2.4 0.9,-0.4 2,0.1 2.4,1 l 4.1,9.7 4.1,-9.7 c 0.4,-1 1.5,-1.5 2.4,-1 0.9,0.5 1.3,1.5 0.9,2.4 z"
           class="st1"
           id="XMLID_26_" /><path
           style="fill:#4d4d4d"
           inkscape:connector-curvature="0"
           d="m 174.7,108.3 c 0,1.1 -0.8,2 -1.9,2 -1.1,0 -1.9,-0.9 -1.9,-2 l 0,-0.7 c 0,-1.1 0.9,-1.9 1.9,-1.9 1.1,0 1.9,0.9 1.9,1.9 l 0,0.7 z m 0,6.4 0,13.9 c 0,1.1 -0.8,1.9 -1.9,1.9 -1.1,0 -1.9,-0.9 -1.9,-1.9 l 0,-13.9 c 0,-1.1 0.9,-2 1.9,-2 1.1,0 1.9,0.9 1.9,2 z"
           class="st1"
           id="XMLID_28_" /><path
           style="fill:#4d4d4d"
           inkscape:connector-curvature="0"
           d="m 179.6,121.6 c 0,-4.9 4.1,-8.9 9,-8.9 2.1,0 4.1,0.8 5.7,2 0.8,0.6 1,1.8 0.4,2.6 -0.7,0.9 -1.8,1 -2.7,0.4 -0.9,-0.7 -2.1,-1.1 -3.4,-1.1 -2.9,0 -5.3,2.4 -5.3,5.1 0,2.7 2.4,5.1 5.3,5.1 1.3,0 2.5,-0.5 3.4,-1.1 0.8,-0.6 2,-0.5 2.7,0.4 0.6,0.8 0.4,1.9 -0.4,2.6 -1.5,1.1 -3.5,1.9 -5.7,1.9 -4.9,-0.1 -9,-4.1 -9,-9 z"
           class="st1"
           id="XMLID_31_" /><path
           style="fill:#4d4d4d"
           inkscape:connector-curvature="0"
           d="m 205,108.3 c 0,1.1 -0.8,2 -1.9,2 -1.1,0 -1.9,-0.9 -1.9,-2 l 0,-0.7 c 0,-1.1 0.9,-1.9 1.9,-1.9 1.1,0 1.9,0.9 1.9,1.9 l 0,0.7 z m 0,6.4 0,13.9 c 0,1.1 -0.8,1.9 -1.9,1.9 -1.1,0 -1.9,-0.9 -1.9,-1.9 l 0,-13.9 c 0,-1.1 0.9,-2 1.9,-2 1.1,0 1.9,0.9 1.9,2 z"
           class="st1"
           id="XMLID_33_" /><path
           style="fill:#4d4d4d"
           inkscape:connector-curvature="0"
           d="m 212.8,127.9 c -1.5,-1.6 -2.5,-3.8 -2.5,-6.3 0,-2.4 0.9,-4.5 2.5,-6.2 1.6,-1.7 3.7,-2.7 6.1,-2.7 2.3,0 4.5,1 5.9,2.7 1.6,1.7 2.5,3.8 2.5,6.2 0,2.5 -0.9,4.7 -2.5,6.3 -1.5,1.7 -3.6,2.7 -5.9,2.7 -2.5,0 -4.5,-1 -6.1,-2.7 z m 1.4,-6.3 c 0,1.5 0.5,2.8 1.3,3.8 0.9,0.9 2.1,1.3 3.4,1.3 1.2,0 2.4,-0.5 3.3,-1.3 0.9,-1 1.4,-2.2 1.4,-3.8 0,-1.5 -0.5,-2.7 -1.4,-3.7 -0.9,-0.8 -2,-1.4 -3.3,-1.4 -1.4,0 -2.5,0.6 -3.4,1.4 -0.8,1 -1.3,2.3 -1.3,3.7 z"
           class="st1"
           id="XMLID_36_" /><path
           style="fill:#4d4d4d"
           inkscape:connector-curvature="0"
           d="m 232.5,125.4 c 0.6,-0.9 1.9,-1 2.7,-0.3 0.9,0.8 2.5,1.6 3.9,1.6 1,0 1.8,-0.3 2.4,-0.7 0.5,-0.4 0.6,-0.8 0.6,-1.1 0,-0.2 0,-0.2 -0.1,-0.4 0,-0.1 -0.2,-0.2 -0.5,-0.4 -0.5,-0.4 -1.6,-0.7 -2.8,-1 l 0,0 c -1.1,-0.2 -2.2,-0.5 -3.1,-0.9 -1,-0.5 -1.8,-1.1 -2.5,-2.1 -0.4,-0.6 -0.6,-1.4 -0.6,-2.2 0,-1.6 0.9,-3 2.1,-3.9 1.2,-0.9 2.7,-1.3 4.4,-1.3 2.5,0 4.2,1.2 5.3,2 0.9,0.6 1.1,1.7 0.6,2.6 -0.6,0.9 -1.7,1.1 -2.6,0.5 -1.1,-0.7 -2.1,-1.3 -3.3,-1.3 -0.9,0 -1.7,0.3 -2.1,0.6 -0.5,0.3 -0.6,0.6 -0.6,0.8 0,0.1 0,0.2 0.1,0.3 0,0.1 0.1,0.2 0.4,0.4 0.5,0.3 1.4,0.6 2.6,0.9 l 0,0 0,0 c 1.2,0.2 2.3,0.5 3.3,1 1,0.4 1.9,1.1 2.5,2.1 0.4,0.7 0.7,1.5 0.7,2.3 0,1.7 -1,3.2 -2.2,4.1 -1.3,0.9 -2.9,1.4 -4.6,1.4 -2.8,0 -4.9,-1.3 -6.3,-2.5 -0.8,-0.5 -0.9,-1.7 -0.3,-2.5 z"
           class="st1"
           id="XMLID_39_" /></g><g
         id="XMLID_9_"><path
           style="fill:#4d4d4d"
           inkscape:connector-curvature="0"
           d="m 260.9,121.8 c 0,-4.8 3.7,-8.6 8.3,-8.6 4.4,0 7.9,3.5 8.3,8 l 0,0 0,0.1 c 0,0.5 -0.4,0.8 -0.8,0.8 l -14.1,0 c 0.2,3.7 3.1,6.6 6.7,6.6 2.3,0 4.4,-1.2 5.5,-3.1 0.2,-0.4 0.8,-0.5 1.1,-0.3 0.4,0.3 0.5,0.8 0.3,1.2 -1.5,2.3 -4,3.9 -6.9,3.9 -4.7,-0.1 -8.4,-3.9 -8.4,-8.6 z m 1.7,-1.4 13,0 c -0.6,-3.2 -3.3,-5.6 -6.4,-5.6 -3.2,0.1 -5.9,2.4 -6.6,5.6 z"
           class="st1"
           id="XMLID_41_" /><path
           style="fill:#4d4d4d"
           inkscape:connector-curvature="0"
           d="m 283.7,106.7 c 0,-0.5 0.4,-0.8 0.8,-0.8 0.5,0 0.9,0.4 0.9,0.8 l 0,22.8 c 0,0.5 -0.4,0.8 -0.9,0.8 -0.5,0 -0.8,-0.4 -0.8,-0.8 l 0,-22.8 z"
           class="st1"
           id="XMLID_44_" /><path
           style="fill:#4d4d4d"
           inkscape:connector-curvature="0"
           d="m 327.2,120.2 c -0.1,-2.9 -2.4,-5.3 -5.3,-5.3 -2.9,0 -5.3,2.4 -5.3,5.3 l 0,9.4 0,0.1 c 0,0 0,0.1 0,0.1 l 0,0.1 c -0.1,0.2 -0.2,0.4 -0.4,0.5 -0.1,0.1 -0.3,0.1 -0.4,0.1 l -0.1,0 -0.1,0 c 0,0 -0.1,0 -0.1,0 -0.1,0 -0.1,-0.1 -0.2,-0.1 0,0 -0.1,0 -0.1,-0.1 L 315,130 c 0,0 0,-0.1 -0.1,-0.1 0,0 0,0 0,-0.1 0,0 0,0 0,-0.1 0,0 0,-0.1 0,-0.1 l 0,-0.1 0,-0.1 0,-9.4 c 0,-2.9 -2.3,-5.3 -5.3,-5.3 -2.9,0 -5.3,2.4 -5.3,5.3 l 0,9.4 c 0,0.3 -0.1,0.5 -0.4,0.7 0,0 -0.1,0.1 -0.2,0.1 0,0 -0.1,0 -0.1,0 l -0.1,0 -0.1,0 c -0.3,0 -0.6,-0.3 -0.7,-0.6 l 0,-0.2 0,-9.4 0,-0.3 0,-5.7 c 0,-0.5 0.4,-0.8 0.8,-0.8 0.5,0 0.8,0.4 0.8,0.8 l 0,1.6 c 1.3,-1.5 3.2,-2.5 5.3,-2.5 2.7,0 4.9,1.5 6.1,3.6 1.2,-2.2 3.5,-3.6 6.2,-3.6 3.9,0 7,3.1 7,7 l 0,9.4 c 0,0.4 -0.4,0.8 -0.8,0.8 -0.5,0 -0.8,-0.4 -0.8,-0.8 l 0,-9.3 z"
           class="st1"
           id="XMLID_46_" /><path
           style="fill:#4d4d4d"
           inkscape:connector-curvature="0"
           d="m 343.3,113.2 c 4.5,0 8.1,3.9 8.1,8.6 0,4.7 -3.6,8.6 -8.1,8.6 -4.5,0 -8.1,-3.9 -8.1,-8.6 -0.1,-4.7 3.6,-8.6 8.1,-8.6 z m 0,15.5 c 3.5,0 6.4,-3.1 6.4,-6.9 0,-3.8 -2.9,-6.9 -6.4,-6.9 -3.5,0 -6.4,3.1 -6.4,6.9 -0.1,3.8 2.9,6.9 6.4,6.9 z"
           class="st1"
           id="XMLID_48_" /><path
           style="fill:#4d4d4d"
           inkscape:connector-curvature="0"
           d="m 357.1,114.1 c 0,-0.5 0.4,-0.8 0.9,-0.8 0.4,0 0.8,0.4 0.8,0.8 l 0,3.8 c 0.1,-0.1 0.1,-0.3 0.2,-0.4 1.3,-2 3.6,-4.2 6.9,-4.2 0.5,0 0.8,0.4 0.8,0.8 0,0.5 -0.4,0.8 -0.8,0.8 -2.2,0 -3.8,1.3 -5,2.8 -1.2,1.5 -1.8,3.3 -2.1,4 -0.1,0.1 -0.1,0.2 -0.1,0.3 l 0,7.5 c 0,0.5 -0.4,0.8 -0.8,0.8 -0.5,0 -0.9,-0.3 -0.9,-0.8 l 0,-15.4 z"
           class="st1"
           id="XMLID_51_" /><path
           style="fill:#4d4d4d"
           inkscape:connector-curvature="0"
           d="m 370.4,121.7 c 0,-4.8 3.9,-8.5 8.8,-8.5 2,0 4,0.7 5.5,1.9 0.4,0.2 0.4,0.8 0.1,1.2 -0.3,0.3 -0.8,0.4 -1.2,0.1 -1.2,-1 -2.8,-1.5 -4.4,-1.5 -4,0 -7.1,3.1 -7.1,6.9 0,3.9 3.2,6.9 7.1,6.9 1.6,0 3.2,-0.6 4.4,-1.5 0.4,-0.3 0.9,-0.2 1.2,0.1 0.3,0.4 0.2,0.9 -0.2,1.2 -1.4,1.1 -3.4,1.8 -5.4,1.8 -4.9,0 -8.8,-3.7 -8.8,-8.6 z"
           class="st1"
           id="XMLID_53_" /><path
           style="fill:#4d4d4d"
           inkscape:connector-curvature="0"
           d="m 404.2,119.9 c 0,-3 -2.5,-5 -5.5,-5 -3,0 -5.4,2 -5.4,5 l 0,9.6 0,0.1 c 0,0.1 0,0.1 0,0.1 0,0.1 0,0.1 -0.1,0.1 -0.1,0.2 -0.3,0.4 -0.5,0.4 0,0 0,0 -0.1,0 l -0.1,0 -0.1,0 c -0.2,0 -0.5,-0.1 -0.7,-0.3 -0.1,-0.1 -0.1,-0.2 -0.1,-0.3 0,-0.1 0,-0.2 0,-0.3 l 0,-9.6 0,-0.3 0,-13 c 0,-0.5 0.4,-0.8 0.8,-0.8 0.5,0 0.9,0.4 0.9,0.8 l 0,9 c 1.3,-1.5 3.3,-2.5 5.4,-2.5 4,0 7.2,2.8 7.2,6.8 l 0,9.6 c 0,0.5 -0.4,0.8 -0.9,0.8 -0.5,0 -0.8,-0.4 -0.8,-0.8 l 0,-9.4 z"
           class="st1"
           id="XMLID_55_" /><path
           style="fill:#4d4d4d"
           inkscape:connector-curvature="0"
           d="m 411.9,121.8 c 0,-4.8 3.7,-8.6 8.3,-8.6 4.4,0 7.9,3.5 8.3,8 l 0,0 0,0.1 c 0,0.5 -0.4,0.8 -0.8,0.8 l -14.1,0 c 0.2,3.7 3.1,6.6 6.7,6.6 2.3,0 4.4,-1.2 5.5,-3.1 0.2,-0.4 0.8,-0.5 1.1,-0.3 0.4,0.3 0.5,0.8 0.3,1.2 -1.5,2.3 -4,3.9 -6.9,3.9 -4.7,-0.1 -8.4,-3.9 -8.4,-8.6 z m 1.8,-1.4 13,0 c -0.6,-3.2 -3.3,-5.6 -6.4,-5.6 -3.3,0.1 -6,2.4 -6.6,5.6 z"
           class="st1"
           id="XMLID_57_" /></g></g></g></svg>